<?xml version="1.0" encoding="iso-8859-1"?>
<!-- Generator: Adobe Illustrator 19.0.0, SVG Export Plug-In . SVG Version: 6.00 Build 0)  -->
<svg version="1.1" id="Capa_1" xmlns="http://www.w3.org/2000/svg" xmlns:xlink="http://www.w3.org/1999/xlink" x="0px" y="0px"
	 viewBox="0 0 511.997 511.997" style="enable-background:new 0 0 511.997 511.997;" xml:space="preserve">
<path style="fill:#F0BDD5;" d="M169.421,148.765l86.575,119.16l86.575-119.16c15.516-21.356,15.516-50.275,0-71.631l-36.45-50.17
	c-7.414-10.204-22.285-11.137-30.916-1.939l-9.956,10.611c-5.012,5.341-13.493,5.341-18.504,0l-9.956-10.611
	c-8.631-9.198-23.502-8.265-30.916,1.939l-36.451,50.17C153.905,98.49,153.905,127.409,169.421,148.765z"/>
<path style="opacity:0.3;fill:#FFFFFF;enable-background:new    ;" d="M223.329,194.209l32.667,73.716l32.667-73.716
	c5.302-11.963,5.527-25.565,0.625-37.697l-13.355-33.054c-1.894-4.688-8.251-5.369-11.095-1.189l-3.977,5.844
	c-2.335,3.432-7.394,3.432-9.729,0l-3.976-5.844c-2.845-4.18-9.201-3.499-11.096,1.189l-13.355,33.054
	C217.802,168.644,218.027,182.245,223.329,194.209z"/>
<path style="fill:#F0C2CE;" d="M115.915,313.44l140.081-45.515l-86.575-119.16c-15.516-21.356-43.019-30.293-68.125-22.135
	l-58.978,19.163c-11.996,3.898-17.478,17.753-11.398,28.803l7.015,12.748c3.531,6.417,0.91,14.483-5.718,17.599l-13.168,6.19
	c-11.415,5.366-15.124,19.798-7.71,30.002l36.451,50.17C63.306,312.661,90.809,321.597,115.915,313.44z"/>
<g>
	<path style="opacity:0.2;fill:#FFFFFF;enable-background:new    ;" d="M115.915,313.44l140.081-45.515l-86.575-119.16
		c-15.516-21.356-43.019-30.293-68.125-22.135l-58.978,19.163c-11.996,3.898-17.478,17.753-11.398,28.803l7.015,12.748
		c3.531,6.417,0.91,14.483-5.718,17.599l-13.168,6.19c-11.415,5.366-15.124,19.798-7.71,30.002l36.451,50.17
		C63.306,312.661,90.809,321.597,115.915,313.44z"/>
	<path style="opacity:0.3;fill:#FFFFFF;enable-background:new    ;" d="M175.793,276.213l80.202-8.289l-60.013-53.848
		c-9.739-8.739-22.605-13.156-35.659-12.243l-35.563,2.487c-5.044,0.353-7.656,6.188-4.56,10.185l4.329,5.588
		c2.542,3.282,0.979,8.093-3.007,9.253l-6.786,1.976c-4.855,1.413-6.171,7.67-2.298,10.92l27.309,22.916
		C149.772,273.57,162.777,277.558,175.793,276.213z"/>
</g>
<path style="fill:#F0C2CE;" d="M255.996,415.214V267.925L115.915,313.44c-25.106,8.157-42.104,31.553-42.104,57.951v62.013
	c0,12.613,11.483,22.109,23.871,19.741l14.292-2.732c7.194-1.375,14.055,3.61,14.97,10.877l1.818,14.436
	c1.576,12.514,14.155,20.501,26.151,16.603l58.978-19.163C238.998,465.007,255.996,441.612,255.996,415.214z"/>
<path style="opacity:0.15;fill:#E978A0;enable-background:new    ;" d="M255.996,415.214V267.925L115.915,313.44
	c-25.106,8.157-42.104,31.553-42.104,57.951v62.013c0,12.613,11.483,22.109,23.871,19.741l14.292-2.732
	c7.194-1.375,14.055,3.61,14.97,10.877l1.818,14.436c1.576,12.514,14.155,20.501,26.151,16.603l58.978-19.163
	C238.998,465.007,255.996,441.612,255.996,415.214z"/>
<path style="opacity:0.3;fill:#FFFFFF;enable-background:new    ;" d="M239.095,346.763l16.901-78.839l-69.757,40.436
	c-11.321,6.562-19.498,17.434-22.663,30.13l-8.624,34.591c-1.223,4.906,3.519,9.194,8.277,7.484l6.652-2.39
	c3.906-1.404,7.999,1.57,7.871,5.719l-0.218,7.065c-0.156,5.054,5.387,8.239,9.675,5.56l30.233-18.891
	C228.54,370.694,236.352,359.558,239.095,346.763z"/>
<path style="fill:#F0C2CE;" d="M396.076,313.44l-140.081-45.515l86.575-119.16c15.516-21.356,43.019-30.293,68.125-22.135
	l58.978,19.163c11.996,3.898,17.478,17.753,11.398,28.803l-7.015,12.748c-3.531,6.417-0.91,14.483,5.718,17.599l13.168,6.19
	c11.415,5.366,15.124,19.798,7.71,30.002l-36.451,50.17C448.685,312.661,421.182,321.597,396.076,313.44z"/>
<path style="opacity:0.15;fill:#E978A0;enable-background:new    ;" d="M396.076,313.44l-140.081-45.515l86.575-119.16
	c15.516-21.356,43.019-30.293,68.125-22.135l58.978,19.163c11.996,3.898,17.478,17.753,11.398,28.803l-7.015,12.748
	c-3.531,6.417-0.91,14.483,5.718,17.599l13.168,6.19c11.415,5.366,15.124,19.798,7.71,30.002l-36.451,50.17
	C448.685,312.661,421.182,321.597,396.076,313.44z"/>
<path style="opacity:0.3;fill:#FFFFFF;enable-background:new    ;" d="M336.198,276.213l-80.203-8.289l60.013-53.848
	c9.74-8.739,22.605-13.156,35.659-12.243l35.563,2.487c5.044,0.353,7.656,6.188,4.56,10.185l-4.329,5.588
	c-2.542,3.282-0.979,8.093,3.007,9.253l6.786,1.976c4.855,1.413,6.171,7.67,2.298,10.92l-27.309,22.916
	C362.22,273.57,349.214,277.558,336.198,276.213z"/>
<path style="fill:#F0BDD5;" d="M255.996,415.214V267.925l140.081,45.515c25.106,8.157,42.104,31.553,42.104,57.951v62.013
	c0,12.613-11.483,22.109-23.871,19.741l-14.292-2.732c-7.194-1.375-14.055,3.61-14.97,10.877l-1.818,14.436
	c-1.576,12.514-14.155,20.501-26.151,16.603l-58.978-19.163C272.994,465.007,255.996,441.612,255.996,415.214z"/>
<path style="opacity:0.3;fill:#FFFFFF;enable-background:new    ;" d="M272.897,346.763l-16.901-78.839l69.757,40.436
	c11.321,6.562,19.498,17.434,22.663,30.13l8.624,34.591c1.223,4.906-3.519,9.194-8.277,7.484l-6.652-2.39
	c-3.906-1.404-7.999,1.57-7.871,5.719l0.218,7.065c0.156,5.054-5.387,8.239-9.675,5.56l-30.233-18.891
	C283.452,370.694,275.64,359.558,272.897,346.763z"/>
<g style="opacity:0.05;">
	<path d="M255.996,98.237c-4.142,0-7.5-3.358-7.5-7.5V68.136c0-4.142,3.358-7.5,7.5-7.5s7.5,3.358,7.5,7.5v22.601
		C263.496,94.879,260.138,98.237,255.996,98.237z"/>
	<path d="M87.482,220.673c-0.768,0-1.549-0.119-2.319-0.369l-21.495-6.984c-3.94-1.28-6.095-5.511-4.815-9.451
		c1.279-3.939,5.507-6.096,9.451-4.815l21.495,6.984c3.939,1.28,6.095,5.511,4.815,9.451
		C93.583,218.658,90.643,220.673,87.482,220.673z"/>
	<path d="M138.556,437.057c-1.528,0-3.071-0.466-4.402-1.433c-3.351-2.435-4.094-7.125-1.659-10.476l13.285-18.285
		c2.434-3.352,7.125-4.095,10.476-1.659c3.351,2.435,4.094,7.124,1.659,10.476l-13.285,18.285
		C143.163,435.985,140.876,437.057,138.556,437.057z"/>
	<path d="M373.435,437.057c-2.319,0-4.607-1.072-6.074-3.092l-13.285-18.285c-2.435-3.351-1.692-8.041,1.659-10.476
		s8.042-1.691,10.476,1.659l13.285,18.285c2.435,3.351,1.692,8.041-1.659,10.476C376.506,436.592,374.964,437.057,373.435,437.057z"
		/>
	<path d="M424.51,220.673c-3.162,0-6.102-2.015-7.131-5.184c-1.28-3.939,0.875-8.171,4.815-9.451l21.495-6.984
		c3.939-1.279,8.171,0.876,9.451,4.815s-0.876,8.171-4.815,9.451l-21.495,6.984C426.059,220.554,425.278,220.673,424.51,220.673z"/>
</g>
<path d="M511.122,222.453c-2.055-7.996-7.518-14.595-14.988-18.107l-13.168-6.19c-1.311-0.616-2.279-1.714-2.726-3.091
	c-0.448-1.378-0.31-2.835,0.388-4.104l7.015-12.748c3.98-7.232,4.521-15.783,1.483-23.459c-3.037-7.676-9.282-13.542-17.134-16.093
	l-34.563-11.23c-3.939-1.28-8.17,0.876-9.45,4.815s0.876,8.17,4.816,9.45l34.563,11.23c3.584,1.165,6.434,3.842,7.821,7.347
	c1.387,3.504,1.14,7.407-0.677,10.708l-7.015,12.748c-2.678,4.867-3.229,10.688-1.513,15.971c1.717,5.283,5.584,9.668,10.611,12.031
	l13.168,6.19c3.41,1.603,5.904,4.616,6.842,8.265c0.938,3.65,0.205,7.492-2.01,10.541l-36.45,50.17
	c-13.649,18.785-37.659,26.585-59.74,19.41l-72.778-23.647l9.811,1.014c1.886,0.195,3.775,0.291,5.66,0.291
	c13.059,0,25.917-4.619,35.977-13.061l27.309-22.915c3.917-3.286,5.695-8.436,4.643-13.439c-1.052-5.003-4.756-8.998-9.664-10.428
	l-4.506-1.313l2.875-3.711c3.131-4.041,3.779-9.451,1.689-14.117c-2.089-4.667-6.555-7.787-11.654-8.143l-35.563-2.488
	c-14.985-1.044-30.005,4.107-41.191,14.143l-7.34,6.586l44.979-61.907c12.325-16.964,33.543-25.176,54.059-20.918
	c4.054,0.838,8.025-1.764,8.868-5.82c0.841-4.056-1.764-8.026-5.82-8.868c-15.468-3.209-31.246-0.881-44.832,6.005
	c2.757-17.485-1.334-35.786-12.276-50.846l-36.451-50.17c-4.852-6.678-12.361-10.805-20.6-11.322
	c-8.239-0.519-16.204,2.639-21.853,8.66l-9.956,10.61c-0.991,1.057-2.335,1.638-3.783,1.638s-2.792-0.582-3.783-1.638l-9.956-10.61
	c-5.648-6.021-13.615-9.179-21.852-8.66c-8.239,0.517-15.748,4.643-20.6,11.322l-36.451,50.17
	c-10.927,15.039-15.023,33.311-12.289,50.774c-15.763-7.997-34.406-9.747-52.086-4.003l-58.977,19.163
	c-7.852,2.551-14.097,8.416-17.134,16.092c-3.038,7.676-2.497,16.227,1.483,23.459l7.015,12.748
	c0.698,1.269,0.836,2.726,0.389,4.104c-0.448,1.377-1.416,2.476-2.726,3.092l-13.168,6.189
	c-7.471,3.512-12.935,10.112-14.989,18.108s-0.45,16.412,4.402,23.09l36.451,50.17c10.928,15.042,27.042,24.577,44.497,27.372
	c-12.48,12.521-19.908,29.713-19.908,48.306v12.994c0,4.142,3.358,7.5,7.5,7.5s7.5-3.358,7.5-7.5v-12.994
	c0-23.22,14.837-43.642,36.921-50.818c0.001,0,0.002-0.001,0.003-0.001l72.775-23.646l-8.534,4.947
	c-13.002,7.537-22.544,20.223-26.179,34.805l-8.624,34.591c-1.237,4.961,0.351,10.172,4.144,13.601
	c3.792,3.429,9.137,4.485,13.947,2.755l4.417-1.587l-0.145,4.691c-0.157,5.11,2.498,9.867,6.931,12.414
	c2.14,1.23,4.516,1.842,6.889,1.842c2.543,0,5.083-0.703,7.326-2.104l30.233-18.892c12.745-7.963,21.862-20.959,25.012-35.653v0.001
	l2.067-9.644v76.523c0,23.22-14.837,43.642-36.921,50.818l-58.979,19.163c-3.583,1.165-7.464,0.674-10.646-1.346
	c-3.182-2.02-5.276-5.323-5.747-9.061l-1.818-14.436c-0.694-5.511-3.669-10.544-8.163-13.81c-4.494-3.265-10.201-4.539-15.657-3.497
	l-14.291,2.732c-3.702,0.709-7.489-0.263-10.394-2.665c-2.904-2.401-4.57-5.94-4.57-9.708v-15.288c0-4.142-3.358-7.5-7.5-7.5
	s-7.5,3.358-7.5,7.5v15.288c0,8.255,3.649,16.007,10.011,21.268c6.363,5.261,14.663,7.391,22.769,5.839l14.291-2.732
	c1.421-0.273,2.851,0.046,4.023,0.898c1.172,0.852,1.917,2.112,2.098,3.549l1.818,14.436c1.031,8.191,5.62,15.426,12.589,19.851
	c4.484,2.847,9.601,4.308,14.772,4.307c2.866,0,5.749-0.449,8.548-1.358l58.979-19.163c17.68-5.745,31.733-18.119,39.786-33.854
	c8.052,15.735,22.106,28.109,39.786,33.854l58.978,19.163c2.8,0.91,5.682,1.358,8.548,1.358c5.17,0,10.288-1.46,14.772-4.307
	c6.969-4.425,11.558-11.66,12.589-19.85l1.818-14.437c0.181-1.437,0.926-2.697,2.097-3.549c1.172-0.851,2.599-1.172,4.023-0.898
	l14.292,2.732c8.11,1.551,16.409-0.579,22.77-5.839c6.362-5.261,10.01-13.013,10.01-21.268V371.39
	c0-18.593-7.428-35.785-19.908-48.306c17.454-2.795,33.57-12.331,44.497-27.371l36.45-50.169
	C511.572,238.865,513.177,230.449,511.122,222.453z M321.018,219.66c8.181-7.341,19.16-11.112,30.127-10.344l33.372,2.335
	l-2.983,3.851c-2.716,3.505-3.519,8.116-2.149,12.332c1.37,4.217,4.729,7.475,8.987,8.715l4.677,1.362l-25.626,21.503
	c-8.42,7.065-19.52,10.469-30.453,9.339l-63.368-6.549L321.018,219.66z M326.893,388.994l-28.37-17.727
	c-9.322-5.825-15.989-15.33-18.293-26.077l-13.354-62.29l55.115,31.949c9.51,5.513,16.488,14.791,19.147,25.456l8.093,32.459
	l-4.584-1.647c-4.173-1.5-8.806-0.839-12.394,1.768c-3.587,2.606-5.647,6.809-5.511,11.24L326.893,388.994z M113.597,306.307
	c-22.082,7.173-46.091-0.624-59.739-19.41l-36.451-50.171c-2.215-3.048-2.947-6.89-2.009-10.54s3.432-6.663,6.842-8.266l13.168-6.19
	c5.027-2.363,8.895-6.748,10.611-12.032c1.716-5.283,1.165-11.104-1.513-15.97l-7.015-12.748c-1.816-3.301-2.063-7.205-0.677-10.708
	c1.387-3.504,4.237-6.182,7.822-7.346l58.977-19.163c22.083-7.174,46.092,0.626,59.74,19.411l44.979,61.908l-7.341-6.587
	c-11.187-10.036-26.204-15.187-41.191-14.143l-35.563,2.487c-5.1,0.357-9.566,3.478-11.655,8.144s-1.441,10.075,1.689,14.117
	l2.875,3.71l-4.507,1.312c-4.909,1.43-8.612,5.425-9.664,10.428c-1.053,5.003,0.726,10.152,4.643,13.438l27.309,22.916
	c10.061,8.442,22.917,13.061,35.978,13.061c1.884,0,3.775-0.096,5.66-0.291l9.811-1.014L113.597,306.307z M175.022,268.753
	c-10.933,1.133-22.033-2.274-30.453-9.339l-25.626-21.504l4.677-1.362c4.257-1.239,7.617-4.497,8.988-8.714
	c1.371-4.217,0.567-8.828-2.148-12.333l-2.983-3.851l33.371-2.334c10.97-0.765,21.946,3.004,30.127,10.344l47.417,42.544
	L175.022,268.753z M231.761,345.191L231.761,345.191c-2.304,10.748-8.971,20.253-18.293,26.077l-28.371,17.727l0.15-4.87
	c0.137-4.432-1.924-8.634-5.511-11.24c-2.32-1.686-5.077-2.558-7.865-2.558c-1.522,0-3.054,0.26-4.528,0.79l-4.584,1.647
	l8.093-32.46c2.659-10.665,9.637-19.943,19.147-25.456l55.115-31.949L231.761,345.191z M255.996,249.413l-25.81-58.243
	c-2.859-6.452-4.001-13.575-3.301-20.597c0.411-4.122-2.598-7.796-6.719-8.207c-4.122-0.414-7.796,2.598-8.206,6.719
	c-0.957,9.602,0.604,19.34,4.513,28.162l3.996,9.018l-44.979-61.909c-13.648-18.786-13.648-44.029,0-62.814l36.45-50.17
	c2.215-3.049,5.643-4.933,9.404-5.169c3.767-0.232,7.397,1.206,9.976,3.953l9.956,10.61c3.801,4.051,9.167,6.374,14.721,6.375l0,0
	c5.554,0,10.92-2.323,14.721-6.374l9.956-10.61c2.579-2.749,6.22-4.184,9.976-3.953c3.761,0.236,7.189,2.12,9.403,5.168
	l36.451,50.17c13.648,18.786,13.648,44.028,0,62.814c-0.001,0.002-0.003,0.004-0.004,0.007l-44.975,61.903l3.996-9.018
	c6.089-13.739,6.352-29.611,0.722-43.545l-13.355-33.054c-1.915-4.74-6.263-8.023-11.346-8.567s-10.028,1.743-12.903,5.969
	l-2.641,3.88l-2.641-3.881c-2.876-4.226-7.818-6.513-12.904-5.969c-5.083,0.545-9.431,3.829-11.345,8.568l-8.176,20.235
	c-1.552,3.84,0.303,8.211,4.144,9.763c3.837,1.551,8.211-0.304,9.763-4.144l7.354-18.199l2.74,4.027
	c2.495,3.666,6.632,5.855,11.066,5.855c4.434,0,8.57-2.189,11.064-5.854l2.741-4.028l12.532,31.017
	c4.118,10.192,3.926,21.8-0.528,31.849L255.996,249.413z M430.68,371.39v62.014c0,3.769-1.665,7.307-4.569,9.708
	c-2.904,2.402-6.694,3.374-10.394,2.665l-14.292-2.732c-5.455-1.041-11.162,0.231-15.656,3.496
	c-4.494,3.265-7.469,8.299-8.163,13.81l-1.818,14.436c-0.471,3.739-2.565,7.042-5.747,9.061c-3.182,2.02-7.061,2.509-10.645,1.346
	l-58.978-19.163c-22.084-7.176-36.921-27.598-36.921-50.818V338.69l2.067,9.644c3.15,14.695,12.266,27.69,25.012,35.654
	l30.232,18.891c2.243,1.401,4.783,2.105,7.327,2.105c2.373,0,4.749-0.613,6.889-1.842c4.433-2.547,7.088-7.304,6.931-12.414
	l-0.145-4.691l4.417,1.587c4.812,1.729,10.156,0.673,13.948-2.755c3.792-3.429,5.38-8.64,4.144-13.601l-8.624-34.591
	c-3.635-14.582-13.177-27.268-26.179-34.805l-8.534-4.947l72.778,23.647C415.843,327.748,430.68,348.17,430.68,371.39z"/>
<g>
</g>
<g>
</g>
<g>
</g>
<g>
</g>
<g>
</g>
<g>
</g>
<g>
</g>
<g>
</g>
<g>
</g>
<g>
</g>
<g>
</g>
<g>
</g>
<g>
</g>
<g>
</g>
<g>
</g>
</svg>
