<svg height="461pt" viewBox="-2 0 461 461.30997" width="461pt" xmlns="http://www.w3.org/2000/svg"><path d="m231.097656 422.65625c-105.867187 0-192-86.132812-192-192s86.132813-192 192-192c105.867188 0 192 86.132812 192 192s-86.132812 192-192 192zm0-368c-97.046875 0-176 78.953125-176 176s78.953125 176 176 176 176-78.953125 176-176-78.953125-176-176-176zm0 0" fill="#3f4f4f"/><g fill="#7ac174"><path d="m448.175781 265.019531c-5.363281-9.117187-13.65625-13.367187-20.980469-15.550781-7.128906-2.121094-12.730468-2.28125-12.871093-2.285156-.003907 0-.027344-.003906-.027344-.003906s-.027344.367187-.082031 1.03125c-.011719.648437-.089844 1.59375-.253906 2.734374-.003907.039063-.003907.054688-.007813.09375-.277344 2.394532-.527344 5.738282-.4375 9.609376.5625 7.820312.644531 17.371093 5.289063 26.351562 4.222656 8.847656 11.1875 15.207031 17.582031 19.316406 6.304687 4.101563 11.746093 5.757813 11.746093 5.757813s.714844-1.710938 1.667969-4.601563c.855469-2.921875 2.386719-6.894531 2.800781-11.730468 1.167969-9.570313 1.238282-21.558594-4.425781-30.722657zm0 0"/><path d="m399.484375 332.632812c-5.101563-4.675781-9.765625-7.226562-10.4375-7.585937-.054687-.027344-.136719-.070313-.136719-.070313s-.828125 1.210938-2.003906 3.320313c-.164062.273437-.355469.695313-.519531 1.003906-1.09375 2.035157-2.269531 4.65625-3.878907 7.5625-1.730468 3.433594-3.402343 7.480469-4.570312 11.949219-1.15625 4.484375-2.363281 8.953125-2.296875 13.9375.054687 9.898438 3.8125 18.863281 7.628906 25.171875 3.875 6.398437 8.066407 10.253906 8.066407 10.253906s1.417968-1.1875 3.578124-3.316406c2.03125-2.253906 4.695313-5.570313 7.394532-9.527344 5.667968-7.683593 10.089844-19.101562 9.527344-29.410156-.761719-10.464844-6.941407-18.277344-12.351563-23.289063zm0 0"/><path d="m332.429688 384.222656-.007813-.011718s-2.285156 1.238281-5.511719 3.550781c-1.636718 1.171875-3.5 2.601562-5.464844 4.320312-2.871093 2.660157-6.351562 5.160157-9.351562 8.660157-3.074219 3.351562-5.777344 7.582031-8.027344 11.75-4.355468 8.65625-4.859375 18.398437-4.101562 25.917968.734375 7.527344 2.828125 12.804688 2.828125 12.804688s7.117187-2.191406 15.535156-6.78125c4.230469-2.21875 8.4375-5.769532 12.300781-9.464844 3.808594-3.816406 7.207032-7.953125 8.988282-13.078125 3.730468-9.972656 1.75-19.324219-.988282-26.230469-2.753906-6.882812-6.179687-11.410156-6.199218-11.4375zm0 0"/><path d="m161.214844 401.957031c-3.855469-.617187-7.992188-1.761719-12.597656-1.933593-4.546876-.300782-9.519532.183593-14.191407 1.03125-9.488281 1.992187-17.425781 7.671874-22.832031 12.953124-5.429688 5.265626-8.253906 10.191407-8.253906 10.191407s6.140625 4.1875 14.96875 7.898437c4.347656 1.953125 9.765625 3.011719 15.058594 3.738282 5.367187.582031 10.703124.707031 15.832031-1.101563 10.144531-3.296875 16.226562-10.675781 19.925781-17.125 3.640625-6.382813 5.050781-11.835937 5.085938-11.960937 0-.003907.003906-.023438.003906-.023438s-2.480469-1.050781-6.421875-2.152344c-1.894531-.527344-4.097657-1.070312-6.578125-1.515625zm0 0"/><path d="m46.371094 298.734375c6.835937-1.074219 11.734375-3.136719 12.433594-3.441406.058593-.023438.140624-.0625.140624-.0625s-.429687-1.402344-1.339843-3.636719c-.121094-.328125-.359375-.773438-.511719-1.128906-.902344-2.109375-2.246094-4.609375-3.472656-7.644532-3.191406-6.992187-8.628906-15.28125-15.921875-21.523437-7.582031-6.164063-17.226563-8.804687-24.511719-9.757813-7.394531-.96875-13.03125-.101562-13.03125-.101562s.015625.460938.046875 1.300781c.015625.839844.121094 2.054688.417969 3.550781.519531 2.996094 1.390625 7.160157 2.78125 11.75 2.371094 9.25 8.730468 19.828126 17.03125 25.84375 8.730468 5.917969 18.632812 5.96875 25.9375 4.851563zm0 0"/><path d="m35 211.839844c7.132812 2.125 12.734375 2.285156 12.875 2.289062h.027344s.027344-.363281.078125-1.03125c.015625-.644531.09375-1.59375.257812-2.730468.003907-.039063 0-.054688.007813-.09375.273437-2.398438.523437-5.742188.4375-9.609376-.5625-7.824218-.644532-17.371093-5.289063-26.355468-4.226562-8.847656-11.1875-15.207032-17.582031-19.3125-6.304688-4.105469-11.746094-5.757813-11.746094-5.757813s-.714844 1.707031-1.671875 4.601563c-.851562 2.921875-2.382812 6.890625-2.796875 11.726562-1.171875 9.570313-1.238281 21.558594 4.425782 30.722656 5.359374 9.121094 13.65625 13.367188 20.976562 15.550782zm0 0"/><path d="m62.714844 128.675781c5.101562 4.679688 9.761718 7.226563 10.4375 7.585938.054687.027343.136718.074219.136718.074219s.828126-1.214844 2.003907-3.320313c.164062-.277344.355469-.699219.519531-1.011719 1.09375-2.03125 2.269531-4.652344 3.878906-7.554687 1.730469-3.4375 3.398438-7.480469 4.570313-11.953125 1.15625-4.484375 2.363281-8.949219 2.296875-13.933594-.054688-9.902344-3.8125-18.867188-7.632813-25.175781-3.871093-6.394531-8.0625-10.253907-8.0625-10.253907s-1.417969 1.191407-3.582031 3.316407c-2.027344 2.257812-4.691406 5.570312-7.390625 9.527343-5.667969 7.683594-10.089844 19.101563-9.527344 29.410157.761719 10.464843 6.941407 18.277343 12.351563 23.289062zm0 0"/><path d="m129.769531 77.085938.007813.011718s2.285156-1.238281 5.507812-3.546875c1.640625-1.171875 3.503906-2.601562 5.46875-4.324219 2.871094-2.660156 6.351563-5.15625 9.351563-8.65625 3.074219-3.355468 5.777343-7.582031 8.027343-11.753906 4.355469-8.65625 4.859376-18.398437 4.101563-25.917968-.734375-7.527344-2.828125-12.800782-2.828125-12.800782s-7.117188 2.191406-15.535156 6.777344c-4.230469 2.21875-8.4375 5.773438-12.300782 9.464844-3.808593 3.820312-7.207031 7.953125-8.988281 13.078125-3.730469 9.976562-1.75 19.324219.988281 26.234375 2.753907 6.878906 6.175782 11.40625 6.199219 11.433594zm0 0"/><path d="m245.242188.371094c-4.773438.457031-10.070313 1.179687-15.136719 2.882812-5.066407 1.957032-9.898438 4.601563-13.746094 8.121094-7.722656 6.878906-9.976563 16.550781-10.511719 24.023438-.484375 7.070312.472656 12.371093.582032 12.949218.007812.035156.023437.117188.023437.117188s1.5-.21875 3.953125-.621094c2.375-.390625 5.636719-.953125 9.335938-1.675781 3.761718-.824219 7.960937-2.242188 12.183593-4.03125 4.21875-1.535157 8.46875-3.734375 12.324219-6.847657 7.707031-6.398437 12.328125-14.578124 14.890625-21.625 2.582031-7.03125 2.976563-12.710937 2.976563-12.710937s-7.292969-1.675781-16.875-.582031zm0 0"/><path d="m300.984375 59.351562c3.855469.617188 7.992187 1.761719 12.597656 1.933594 4.546875.300782 9.519531-.183594 14.191407-1.027344 9.488281-1.996093 17.425781-7.675781 22.832031-12.953124 5.429687-5.269532 8.253906-10.195313 8.253906-10.195313s-6.144531-4.183594-14.972656-7.898437c-4.34375-1.953126-9.761719-3.007813-15.054688-3.738282-5.371093-.582031-10.703125-.703125-15.835937 1.101563-10.140625 3.300781-16.222656 10.675781-19.925782 17.125-3.636718 6.386719-5.046874 11.835937-5.082031 11.964843 0 0-.003906.023438-.003906.023438s2.480469 1.046875 6.421875 2.148438c1.894531.53125 4.097656 1.070312 6.578125 1.515624zm0 0"/><path d="m370.789062 282.132812c7.183594 1.457032 16.789063 2.171876 24.996094-2.03125 7.777344-4.304687 13.574219-12.496093 15.636719-19.796874 1.230469-3.613282 1.992187-6.90625 2.445313-9.277344.261718-1.183594.34375-2.148438.34375-2.816406.015624-.667969.023437-1.035157.023437-1.035157s-5.644531-.78125-13.007813-.171875c-7.246093.605469-16.832031 2.433594-24.144531 6.832032-7.023437 4.480468-11.941406 10.382812-14.5625 15.46875-1.15625 2.589843-2.609375 4.714843-3.210937 6.382812-.703125 1.636719-.996094 2.679688-.996094 2.679688s5.21875 2.261718 12.476562 3.765624zm0 0"/><path d="m386.832031 328.25c1.328125-2.015625 2.023438-3.308594 2.023438-3.308594s-4.726563-3.152344-11.675781-5.839844c-7.015626-2.761718-15.867188-4.921874-24.464844-4.21875-8.820313.570313-14.988282 4.4375-20.054688 7.496094-2.402344 1.632813-4.210937 3.328125-5.484375 4.582032-1.40625 1.117187-2.160156 1.894531-2.160156 1.894531s3.714844 4.292969 9.636719 8.828125c6.007812 4.589844 14.121094 9.171875 23.25 8.847656 4.515625-.1875 9.1875-1.296875 12.933594-3.4375 3.761718-2.125 7.136718-4.824219 9.9375-7.449219 2.925781-2.542969 4.683593-5.417969 6.058593-7.394531zm0 0"/><path d="m320.410156 390.234375c7.101563-2.75 11.976563-6.074219 11.976563-6.074219s-2.894531-4.882812-8.019531-10.347656c-5.105469-5.46875-12.375-11.609375-20.316407-14.488281-3.894531-1.285157-7.9375-2.265625-11.515625-2.441407-3.632812-.300781-6.761718.394532-9.699218.636719-5.792969.617188-9.683594 2.453125-9.683594 2.453125s1.488281 5.5 4.824218 12.074219c3.355469 6.566406 8.660157 14.183594 17.132813 18.144531 4.296875 2.140625 8.664063 2.4375 13.058594 2.320313 4.316406-.261719 8.753906-.808594 12.242187-2.277344zm0 0"/><path d="m231.71875 371.171875c-3.164062-1.792969-6.273438-3.175781-9.0625-3.941406-5.582031-1.351563-9.824219-1.957031-9.824219-1.957031s-1.035156 5.582031-.882812 13.03125c.179687 7.429687 1.625 16.980468 7.597656 23.738281 2.96875 3.457031 6.761719 6.0625 10.765625 8.011719 4.007812 1.699218 8.21875 2.457031 12.015625 2.972656 7.640625 1.210937 13.410156-.242188 13.410156-.242188s-.480469-5.671875-2.703125-12.746094c-2.203125-7.09375-6.019531-15.390624-11.972656-21.914062-2.976562-3.171875-6.1875-5.410156-9.34375-6.953125zm0 0"/><path d="m255.746094 412.847656s-1.503906.214844-3.964844.621094c-2.375.390625-5.632812.953125-9.324219 1.675781-3.761719.824219-7.960937 2.238281-12.183593 4.027344-4.21875 1.539063-8.472657 3.734375-12.324219 6.847656-7.707031 6.398438-12.328125 14.578125-14.890625 21.628907-2.582032 7.027343-2.976563 12.710937-2.976563 12.710937s7.292969 1.675781 16.875.578125c4.773438-.457031 10.070313-1.179688 15.136719-2.882812 5.066406-1.953126 9.898438-4.601563 13.746094-8.117188 7.722656-6.882812 9.976562-16.554688 10.511718-24.023438.484376-7.074218-.472656-12.375-.585937-12.953124-.003906-.035157-.019531-.113282-.019531-.113282zm0 0"/><path d="m170.769531 357.417969c-2.023437-3.035157-4.523437-5.023438-6.535156-7.203125-4.109375-4.144532-7.984375-6.042969-7.984375-6.042969s-3.375 4.589844-6.4375 11.292969c-3.042969 6.71875-5.695312 15.609375-3.511719 24.695312 1.011719 4.6875 3.476563 8.324219 6.3125 11.667969 2.894531 3.21875 6.09375 6.324219 9.402344 8.167969 6.578125 3.835937 12.21875 5.566406 12.21875 5.566406s2.015625-5.304688 3.097656-12.714844c1.101563-7.402344 1.375-16.90625-1.308593-24.898437-1.417969-3.832031-3.15625-7.644531-5.253907-10.53125zm0 0"/><path d="m101.183594 360.878906c1.722656 1.6875 2.859375 2.613282 2.859375 2.613282s4.132812-3.914063 8.265625-10.0625c4.074218-6.054688 8.417968-14.472657 9.675781-23.070313.664063-4.332031.140625-8.007813-.34375-11.660156-.5-3.636719-1.511719-6.804688-2.675781-9.433594-1.289063-2.546875-2.128906-4.953125-3.023438-6.496094-.839844-1.574219-1.472656-2.457031-1.472656-2.457031s-5.019531 2.675781-10.714844 7.421875c-5.605468 4.707031-12.191406 11.8125-13.960937 20.816406-1.570313 8.84375 1.363281 18.359375 5.707031 24.59375 2.042969 3.230469 4.097656 5.917969 5.683594 7.734375zm0 0"/><path d="m104 363.539062s-.847656-.816406-2.128906-1.9375c-.273438-.238281-.425782-.386718-.746094-.660156-1.71875-1.695312-4.132812-4.015625-7.195312-6.375-6.390626-4.507812-14.050782-10.273437-23.875-12.3125-9.605469-2.167968-18.867188-.707031-26.074219 1.746094-7.132813 2.378906-11.816407 5.605469-11.816407 5.605469s.886719 1.621093 2.550782 4.167969c1.710937 2.511718 3.945312 6.121093 7.4375 9.46875 3.367187 3.429687 7.398437 7.007812 11.832031 9.964843 4.414063 2.972657 9.769531 4.875 14.886719 5.714844 10.332031 1.628906 19.03125-2.410156 25.292968-6.746094 6.078126-4.214843 9.675782-8.445312 9.792969-8.585937 0-.003906.042969-.050782.042969-.050782zm0 0"/><path d="m57.683594 291.566406c.746094 2.292969 1.324218 3.640625 1.324218 3.640625s5.410157-1.730469 11.84375-5.496093c6.511719-3.761719 13.773438-9.363282 18.519532-16.492188 5.171875-7.269531 5.816406-14.433594 6.683594-20.308594.25-2.890625.109374-5.363281-.097657-7.132812-.28125-1.757813-.175781-2.867188-.246093-2.859375 0 0-5.667969.222656-12.925782 2.019531-7.359375 1.832031-15.710937 5.265625-21.347656 12.621094-5.929688 7.402344-6.382812 17.007812-5.78125 24.667968.136719 3.882813 1.382812 7.015626 2.027344 9.339844zm0 0"/><path d="m85.117188 207.476562c7.023437-4.484374 11.941406-10.386718 14.5625-15.472656 1.15625-2.589844 2.609374-4.714844 3.210937-6.382812.703125-1.636719.996094-2.679688.996094-2.679688s-5.21875-2.261718-12.476563-3.765625c-7.183594-1.457031-16.789062-2.167969-24.996094 2.035157-7.777343 4.300781-13.574218 12.492187-15.640624 19.792968-1.226563 3.613282-1.992188 6.90625-2.441407 9.277344-.261719 1.183594-.34375 2.148438-.34375 2.816406-.015625.671875-.023437 1.035156-.023437 1.035156s5.644531.785157 13.007812.171876c7.246094-.605469 16.832032-2.433594 24.144532-6.828126zm0 0"/><path d="m75.363281 133.058594c-1.324219 2.015625-2.019531 3.308594-2.019531 3.308594s4.726562 3.15625 11.675781 5.84375c7.011719 2.757812 15.867188 4.921874 24.464844 4.214843 8.820313-.570312 14.984375-4.4375 20.054687-7.496093 2.402344-1.628907 4.210938-3.328126 5.484376-4.578126 1.40625-1.117187 2.160156-1.898437 2.160156-1.898437s-3.714844-4.292969-9.636719-8.828125c-6.007813-4.585938-14.121094-9.171875-23.25-8.847656-4.519531.1875-9.1875 1.296875-12.933594 3.4375-3.761719 2.125-7.136719 4.824218-9.9375 7.453125-2.929687 2.542969-4.683593 5.414062-6.0625 7.390625zm0 0"/><path d="m167.089844 71.117188c-4.296875-2.140626-8.664063-2.433594-13.058594-2.320313-4.316406.265625-8.753906.808594-12.242188 2.28125-7.101562 2.746094-11.976562 6.074219-11.976562 6.074219s2.894531 4.878906 8.019531 10.34375c5.105469 5.472656 12.371094 11.609375 20.316407 14.488281 3.894531 1.289063 7.9375 2.269531 11.511718 2.441406 3.636719.304688 6.765625-.394531 9.703125-.636719 5.792969-.613281 9.683594-2.449218 9.683594-2.449218s-1.488281-5.5-4.824219-12.074219c-3.355468-6.570313-8.660156-14.1875-17.132812-18.148437zm0 0"/><path d="m242.652344 59.269531c-2.96875-3.460937-6.761719-6.0625-10.765625-8.015625-4.007813-1.699218-8.21875-2.453125-12.015625-2.972656-7.640625-1.210938-13.410156.246094-13.410156.246094s.480468 5.671875 2.703124 12.746094c2.203126 7.089843 6.019532 15.390624 11.972657 21.910156 2.972656 3.171875 6.183593 5.414062 9.34375 6.953125 3.160156 1.792969 6.273437 3.175781 9.0625 3.941406 5.582031 1.351563 9.824219 1.960937 9.824219 1.960937s1.035156-5.585937.878906-13.03125c-.175782-7.429687-1.625-16.980468-7.59375-23.738281zm0 0"/><path d="m291.429688 103.894531c2.023437 3.035157 4.523437 5.019531 6.535156 7.199219 4.109375 4.144531 7.984375 6.042969 7.984375 6.042969s3.375-4.589844 6.4375-11.292969c3.042969-6.714844 5.695312-15.609375 3.507812-24.695312-1.007812-4.683594-3.472656-8.320313-6.308593-11.667969-2.894532-3.21875-6.09375-6.324219-9.402344-8.167969-6.578125-3.832031-12.21875-5.566406-12.21875-5.566406s-2.015625 5.304687-3.097656 12.71875c-1.101563 7.398437-1.375 16.902344 1.308593 24.894531 1.417969 3.835937 3.152344 7.648437 5.253907 10.535156zm0 0"/></g><path d="m429.59375 144.953125c-13.054688-3.761719-26.691406 1.546875-33.242188 4.753906-2.476562 1.210938-4.023437 2.144531-4.023437 2.144531s4.0625 8.375 11.683594 15.769532c4.296875 4.171875 9.710937 8.03125 16.195312 9.902344 17.988281 5.183593 37.265625-6.902344 37.265625-6.902344s-9.890625-20.488282-27.878906-25.667969zm0 0" fill="#d85b55"/><path d="m392.296875 151.796875s1.597656-.78125 3.972656-2.253906c6.214844-3.859375 17.949219-12.609375 21.699219-25.625 5.179688-17.988281-6.902344-37.261719-6.902344-37.261719s-20.488281 9.890625-25.671875 27.878906c-1.402343 4.875-1.484375 9.808594-.9375 14.464844 1.472657 12.523438 7.839844 22.796875 7.839844 22.796875zm0 0" fill="#d85b55"/><path d="m364.363281 126.160156c-17.988281-5.183594-37.265625 6.902344-37.265625 6.902344s9.894532 20.484375 27.882813 25.667969c17.988281 5.183593 37.261719-6.902344 37.261719-6.902344s-9.890626-20.488281-27.878907-25.667969zm0 0" fill="#d85b55"/><path d="m366.605469 179.765625c-5.183594 17.988281 6.898437 37.261719 6.898437 37.261719s20.488282-9.890625 25.671875-27.878906c5.183594-17.988282-6.902343-37.265626-6.902343-37.265626s-20.488282 9.890626-25.667969 27.882813zm0 0" fill="#d85b55"/></svg>