<svg height="511pt" viewBox="-68 1 511 511.99998" width="511pt" xmlns="http://www.w3.org/2000/svg"><path d="m141.453125 49.347656c15.335937 35.253906 47.28125 186.820313 12.023437 202.15625-35.253906 15.339844-124.363281-111.359375-139.699218-146.617187-15.335938-35.253907.8125-76.269531 36.066406-91.605469 35.257812-15.339844 76.273438.808594 91.609375 36.066406zm0 0" fill="#ffeab7"/><path d="m128.265625 101.699219c8.074219 18.554687 28.320313 106.21875 9.761719 114.292969-18.554688 8.070312-68.886719-66.507813-76.960938-85.0625-8.070312-18.554688.429688-40.140626 18.984375-48.214844 18.558594-8.070313 40.144531.429687 48.214844 18.984375zm0 0" fill="#ffabcd"/><path d="m234.148438 49.347656c-15.339844 35.253906-47.285157 186.820313-12.027344 202.15625 35.257812 15.339844 124.363281-111.359375 139.699218-146.617187 15.339844-35.253907-.808593-76.269531-36.066406-91.605469-35.253906-15.339844-76.269531.808594-91.605468 36.066406zm0 0" fill="#ffeab7"/><path d="m247.332031 101.699219c-8.070312 18.554687-28.316406 106.21875-9.761719 114.292969 18.558594 8.070312 68.886719-66.507813 76.960938-85.0625 8.074219-18.554688-.425781-40.140626-18.980469-48.214844-18.558593-8.070313-40.144531.429687-48.21875 18.984375zm0 0" fill="#ffabcd"/><path d="m327.339844 238.921875h-279.078125s15.457031 111.472656-9.101563 210.324219c-6.976562 28.089844 14.316406 55.253906 43.261719 55.253906h210.753906c28.945313 0 50.242188-27.164062 43.261719-55.253906-24.558594-98.851563-9.097656-210.324219-9.097656-210.324219zm0 0" fill="#546370"/><path d="m48.261719 238.921875s15.460937 111.472656-9.097657 210.324219c-6.980468 28.089844 14.316407 55.253906 43.261719 55.253906h61.851563c-4.390625-18.652344-6.0625-41.441406 1.351562-64.382812 7.664063-23.710938 10.984375-51.019532 12.296875-74.199219 1.644531-29.039063 20.25-54.21875 47.441407-64.542969 43.863281-16.65625 66.117187-43.449219 76.953124-62.453125zm0 0" fill="#3d4751"/><path d="m48.261719 238.921875s5.363281 38.6875 4.753906 90.679687h269.570313c-.613282-51.992187 4.753906-90.679687 4.753906-90.679687zm0 0" fill="#76e7e7"/><path d="m205.367188 301.375c43.863281-16.65625 66.117187-43.449219 76.953124-62.453125h-234.058593s5.367187 38.6875 4.753906 90.679687h116.972656c8.359375-12.617187 20.605469-22.617187 35.378907-28.226562zm0 0" fill="#2eddda"/><path d="m330.546875 262.289062h-285.492187c-18.011719 0-32.613282-14.601562-32.613282-32.613281s14.601563-32.613281 32.613282-32.613281h285.492187c18.011719 0 32.613281 14.601562 32.613281 32.613281s-14.601562 32.613281-32.613281 32.613281zm0 0" fill="#6b7d8e"/><path d="m97.214844 229.675781c0-18.011719 14.601562-32.613281 32.613281-32.613281h-84.773437c-18.011719 0-32.613282 14.601562-32.613282 32.613281s14.601563 32.613281 32.613282 32.613281h84.773437c-18.011719 0-32.613281-14.601562-32.613281-32.613281zm0 0" fill="#546370"/><path d="m362.675781 103.902344c3.972657 1.167968 8.144531-1.105469 9.316407-5.078125 10.957031-37.195313-7.632813-76.929688-43.242188-92.421875-38.996094-16.964844-84.519531.957031-101.480469 39.953125-10.441406 23.996093-26.210937 92.605469-28.363281 143.207031h-22.214844c-2.148437-50.597656-17.917968-119.207031-28.359375-143.207031-16.964843-38.992188-62.488281-56.917969-101.480469-39.953125-38.992187 16.960937-56.914062 62.484375-39.953124 101.476562 7.015624 16.125 28.519531 50.089844 53.429687 81.683594h-15.273437c-22.121094 0-40.113282 17.996094-40.113282 40.113281 0 21.671875 17.277344 39.371094 38.777344 40.078125 2.90625 40.453125 4.511719 111.882813-11.835938 177.683594-3.882812 15.625-.417968 31.867188 9.507813 44.558594 9.941406 12.714844 24.898437 20.003906 41.035156 20.003906h210.75c16.136719 0 31.09375-7.289062 41.035157-20.003906 9.921874-12.691406 13.390624-28.933594 9.507812-44.558594-16.355469-65.828125-14.734375-137.316406-11.835938-177.683594 21.5-.707031 38.777344-18.40625 38.777344-40.078125 0-22.117187-17.996094-40.113281-40.113281-40.113281h-15.269531c18.042968-22.882812 33.382812-45.882812 42.496094-61.1875 2.121093-3.5625.953124-8.164062-2.605469-10.28125-3.558594-2.117188-8.164063-.953125-10.28125 2.605469-10.101563 16.957031-28.082031 43.65625-48.878907 68.863281h-11.3125c16.667969-20.632812 32.167969-45.191406 36.710938-55.640625 9.710938-22.316406-.292969-48.984375-22.867188-58.082031-34.90625-14.074219-53.378906 12.054687-58.082031 22.867187-5.664062 13.019531-17.503906 59.203125-17.976562 90.855469h-8.566407c2.21875-51.757812 18.375-117.140625 27.109376-137.226562 13.664062-31.40625 50.332031-45.84375 81.738281-32.179688 28.683593 12.480469 43.660156 44.476562 34.839843 74.429688-1.171874 3.972656 1.101563 8.144531 5.074219 9.316406zm-342.019531-2.007813c-13.664062-31.40625.773438-68.074219 32.179688-81.738281 31.410156-13.65625 68.078124.777344 81.738281 32.183594 8.738281 20.082031 24.890625 85.46875 27.113281 137.222656h-8.570312c-.472657-31.648438-12.308594-77.835938-17.972657-90.855469-4.703125-10.8125-22.378906-36.9375-58.085937-22.867187-22.644532 8.925781-32.574219 35.765625-22.867188 58.085937 4.546875 10.445313 20.046875 35.003907 36.714844 55.636719h-11.3125c-26.441406-32.066406-51.589844-70.777344-58.9375-87.667969zm89.902344 87.667969c-18.914063-21.195312-38.359375-51.851562-42.609375-61.621094-6.410157-14.734375.203125-32.3125 15.097656-38.347656 22.359375-9.058594 35.238281 7.960938 38.34375 15.097656 5.300781 12.183594 16.210937 56.476563 16.714844 84.871094zm211.832031 293.195312c-7.074219 9.050782-17.726563 14.242188-29.214844 14.242188h-210.75c-11.492187 0-22.140625-5.191406-29.21875-14.242188-7.0625-9.03125-9.527343-20.585937-6.765625-31.703124 16.6875-67.164063 15.242188-139.667969 12.320313-181.265626h258.078125c-1.003906 14.265626-1.828125 32.195313-1.808594 52.3125h-230.894531c-4.140625 0-7.5 3.359376-7.5 7.5 0 4.144532 3.359375 7.5 7.5 7.5h231.070312c.785157 35.183594 4.386719 75.445313 13.953125 113.953126 2.761719 11.117187.292969 22.671874-6.769531 31.703124zm33.269531-253.082031c0 13.847657-11.265625 25.113281-25.113281 25.113281h-285.492187c-13.847657 0-25.113282-11.265624-25.113282-25.113281 0-13.847656 11.265625-25.113281 25.113282-25.113281h285.492187c13.847656 0 25.113281 11.265625 25.113281 25.113281zm-101.449218-124.984375c3.105468-7.136718 14.203124-23.789062 38.347656-15.097656 15.117187 5.441406 21.503906 23.609375 15.097656 38.347656-4.253906 9.769532-23.703125 40.425782-42.613281 61.621094h-27.546875c.5-28.394531 11.414062-72.6875 16.714844-84.871094zm0 0"/></svg>